<svg width="1105" height="1102" xmlns="http://www.w3.org/2000/svg" xmlns:xlink="http://www.w3.org/1999/xlink" xml:space="preserve" overflow="hidden"><g transform="translate(-422 -424)"><path d="M455.5 975C455.5 688.088 688.088 455.5 975 455.5 1261.91 455.5 1494.5 688.088 1494.5 975 1494.5 1261.91 1261.91 1494.5 975 1494.5 688.088 1494.5 455.5 1261.91 455.5 975Z" stroke="#00407A" stroke-width="63.0208" stroke-miterlimit="8" fill="#FFFFFF" fill-rule="evenodd"/><g><g><g><g><path d="M75.3408 460.417 113.552 459.954 149.852 459.511 164.181 459.959 175.645 460.877 186.153 462.258 197.616 464.343 228.185 470.418 234.872 470.924 240.603 470.794 245.38 470.183 250.156 469.029 254.932 467.269 259.708 464.844 264.484 461.719 269.262 457.874 274.037 453.324 279.77 446.993 286.456 438.603 296.009 425.476 305.561 412.51 311.293 405.701 315.114 401.898 318.936 398.877 321.801 397.23 324.668 396.194 327.533 395.835 330.4 396.222 333.265 397.414 336.13 399.468 338.997 402.432 341.862 406.348 344.727 411.247 347.594 417.148 351.416 426.589 355.237 437.813 359.056 450.758 363.834 469.193 368.61 489.835 375.296 521.591 395.357 619.974 400.133 639.47 403.954 652.704 406.822 660.956 409.686 667.573 411.597 670.993 413.508 673.564 415.419 675.242 417.329 675.989 419.24 675.766 421.151 674.544 423.061 672.29 424.972 668.985 426.88 664.609 429.748 656.009 432.613 644.954 435.48 631.451 438.345 615.544 442.166 590.714 445.988 561.995 450.763 521.176 456.495 466.205 464.138 386.064 478.467 233.837 484.197 179.926 488.019 148.305 491.84 121.006 494.705 103.774 497.572 89.6001 500.437 78.7057 502.348 73.3572 504.258 69.5945 506.169 67.4554 507.123 67.0044 508.08 66.9696 509.034 67.3538 509.991 68.1588 511.901 71.0354 513.812 75.6035 515.723 81.8585 517.634 89.7866 520.498 104.764 523.363 123.34 526.231 145.357 530.052 179.716 533.871 219.253 538.649 274.881 544.381 348.635 553.932 480.417 563.486 609.865 569.218 680.084 573.994 731.691 577.815 767.404 581.637 797.493 584.501 816.068 587.366 831.047 590.234 842.312 592.144 847.724 594.055 851.448 595.966 853.479 596.92 853.863 597.877 853.83 598.831 853.377 599.785 852.513 601.695 849.558 603.606 844.997 605.517 838.871 608.384 826.862 611.249 811.643 614.114 793.446 617.935 765 621.757 732.41 626.532 686.995 633.221 617.498 650.415 435.679 656.147 382.721 660.923 344.013 664.744 317.199 668.566 294.418 671.431 280.11 674.298 268.236 677.163 258.818 680.028 251.848 681.938 248.543 683.849 246.29 685.76 245.066 687.671 244.844 689.581 245.59 691.492 247.27 693.403 249.841 695.313 253.261 698.178 259.877 701.046 268.129 704.867 281.363 708.686 296.736 713.464 318.258 721.104 355.917 733.523 417.728 739.255 443.627 744.033 462.99 748.809 479.943 752.63 491.605 756.452 501.493 760.273 509.587 763.138 514.485 766.003 518.401 768.87 521.366 771.735 523.419 774.6 524.611 777.467 524.998 780.332 524.64 783.199 523.604 786.064 521.956 789.886 518.936 793.707 515.132 798.483 509.53 805.169 500.675 822.365 477.319 828.095 470.564 833.827 464.696 838.605 460.568 843.381 457.153 848.156 454.452 852.934 452.431 857.71 451.045 862.486 450.223 868.218 449.886 873.95 450.124 880.636 450.947 890.19 452.756 917.892 458.424 928.399 459.851 939.864 460.818 952.282 461.281 968.522 461.294 1029.66 460.417 1029.66 460.417" stroke="#00407A" stroke-width="51.1574" stroke-linecap="square" stroke-linejoin="round" fill="none" transform="matrix(1 0 0 1.00018 422 514)"/></g></g></g></g></g></svg>