<svg width="1993" height="1676" xmlns="http://www.w3.org/2000/svg" xmlns:xlink="http://www.w3.org/1999/xlink" xml:space="preserve" overflow="hidden"><g transform="translate(22 -174)"><path d="M455.5 725.5C455.5 438.312 688.088 205.5 975 205.5 1261.91 205.5 1494.5 438.312 1494.5 725.5 1494.5 1012.69 1261.91 1245.5 975 1245.5 688.088 1245.5 455.5 1012.69 455.5 725.5Z" stroke="#00407A" stroke-width="63.0208" stroke-miterlimit="8" fill="#FFFFFF" fill-rule="evenodd"/><text fill="#FFFFFF" font-family="Aharoni,Aharoni_MSFontService,sans-serif" font-weight="700" font-size="275" transform="matrix(1 0 0 1 143.803 1568)">dtaianomaly</text><text fill="#FFFFFF" font-family="Aharoni,Aharoni_MSFontService,sans-serif" font-weight="700" font-size="110" transform="matrix(1 0 0 1 189.361 1750)">Time series anomaly detection</text><g><g><g><g><path d="M75.2726 460 113.449 459.537 149.717 459.095 164.033 459.542 175.486 460.46 185.984 461.84 197.437 463.923 227.978 469.992 234.659 470.498 240.385 470.368 245.157 469.757 249.929 468.604 254.701 466.846 259.473 464.424 264.244 461.301 269.018 457.46 273.789 452.913 279.516 446.588 286.197 438.206 295.742 425.091 305.284 412.137 311.011 405.334 314.829 401.534 318.647 398.516 321.509 396.87 324.374 395.835 327.236 395.477 330.101 395.863 332.963 397.054 335.826 399.106 338.69 402.068 341.552 405.981 344.415 410.874 347.279 416.77 351.098 426.203 354.915 437.416 358.731 450.35 363.505 468.768 368.276 489.391 374.956 521.119 394.999 619.413 399.771 638.891 403.589 652.114 406.453 660.358 409.316 666.969 411.225 670.386 413.134 672.954 415.043 674.631 416.952 675.377 418.861 675.155 420.77 673.933 422.679 671.682 424.588 668.38 426.494 664.007 429.359 655.416 432.221 644.37 435.086 630.88 437.948 614.987 441.766 590.18 445.584 561.486 450.355 520.705 456.082 465.783 463.718 385.715 478.034 233.626 483.759 179.764 487.577 148.171 491.395 120.897 494.257 103.68 497.122 89.5191 499.984 78.6344 501.893 73.2908 503.802 69.5315 505.711 67.3943 506.664 66.9438 507.62 66.909 508.573 67.2929 509.529 68.0971 511.438 70.9711 513.347 75.535 515.256 81.7844 517.165 89.7054 520.027 104.669 522.89 123.229 525.754 145.226 529.572 179.554 533.388 219.054 538.162 274.633 543.889 348.32 553.431 479.982 562.976 609.313 568.703 679.468 573.474 731.029 577.292 766.71 581.11 796.771 583.972 815.329 586.835 830.295 589.699 841.549 591.608 846.957 593.517 850.678 595.426 852.707 596.38 853.09 597.335 853.057 598.289 852.605 599.242 851.741 601.151 848.789 603.06 844.233 604.969 838.112 607.834 826.114 610.696 810.908 613.558 792.728 617.376 764.308 621.194 731.747 625.965 686.374 632.648 616.939 649.827 435.285 655.554 382.375 660.325 343.702 664.143 316.912 667.961 294.152 670.823 279.856 673.688 267.993 676.55 258.584 679.412 251.62 681.321 248.318 683.23 246.067 685.139 244.844 687.048 244.622 688.957 245.368 690.866 247.046 692.775 249.615 694.684 253.031 697.546 259.642 700.411 267.886 704.229 281.109 708.045 296.467 712.818 317.97 720.452 355.595 732.859 417.35 738.586 443.225 743.36 462.571 748.131 479.509 751.949 491.16 755.767 501.04 759.585 509.125 762.447 514.019 765.31 517.932 768.174 520.894 771.036 522.946 773.899 524.137 776.763 524.523 779.626 524.165 782.49 523.13 785.353 521.484 789.171 518.466 792.989 514.666 797.76 509.069 804.44 500.222 821.621 476.887 827.346 470.138 833.073 464.275 837.846 460.151 842.618 456.739 847.389 454.04 852.163 452.021 856.934 450.636 861.705 449.816 867.432 449.479 873.159 449.716 879.839 450.539 889.384 452.346 917.061 458.009 927.559 459.435 939.013 460.401 951.42 460.864 967.646 460.876 1028.73 460 1028.73 460" stroke="#00407A" stroke-width="51.1111" stroke-linecap="square" stroke-linejoin="round" fill="none" transform="matrix(1.00091 0 0 1 422 265)"/></g></g></g></g></g></svg>