<?xml version="1.0" encoding="utf-8" standalone="no"?>
<!DOCTYPE svg PUBLIC "-//W3C//DTD SVG 1.1//EN"
  "http://www.w3.org/Graphics/SVG/1.1/DTD/svg11.dtd">
<svg xmlns:xlink="http://www.w3.org/1999/xlink" width="720pt" height="216pt" viewBox="0 0 720 216" xmlns="http://www.w3.org/2000/svg" version="1.1">
 <metadata>
  <rdf:RDF xmlns:dc="http://purl.org/dc/elements/1.1/" xmlns:cc="http://creativecommons.org/ns#" xmlns:rdf="http://www.w3.org/1999/02/22-rdf-syntax-ns#">
   <cc:Work>
    <dc:type rdf:resource="http://purl.org/dc/dcmitype/StillImage"/>
    <dc:date>2023-10-09T15:01:25.265866</dc:date>
    <dc:format>image/svg+xml</dc:format>
    <dc:creator>
     <cc:Agent>
      <dc:title>Matplotlib v3.8.0, https://matplotlib.org/</dc:title>
     </cc:Agent>
    </dc:creator>
   </cc:Work>
  </rdf:RDF>
 </metadata>
 <defs>
  <style type="text/css">*{stroke-linejoin: round; stroke-linecap: butt}</style>
 </defs>
 <g id="figure_1">
  <g id="patch_1">
   <path d="M 0 216 
L 720 216 
L 720 0 
L 0 0 
L 0 216 
z
" style="fill: none"/>
  </g>
  <g id="axes_1">
   <g id="patch_2">
    <path d="M 39.85 92.31 
L 709.2 92.31 
L 709.2 26.88 
L 39.85 26.88 
L 39.85 92.31 
z
" style="fill: none"/>
   </g>
   <g id="matplotlib.axis_1">
    <g id="xtick_1">
     <g id="line2d_1">
      <defs>
       <path id="m090027707c" d="M 0 0 
L 0 3.5 
" style="stroke: #000000; stroke-width: 0.8"/>
      </defs>
      <g>
       <use xlink:href="#m090027707c" x="70.275" y="92.31" style="stroke: #000000; stroke-width: 0.8"/>
      </g>
     </g>
    </g>
    <g id="xtick_2">
     <g id="line2d_2">
      <g>
       <use xlink:href="#m090027707c" x="157.265708" y="92.31" style="stroke: #000000; stroke-width: 0.8"/>
      </g>
     </g>
    </g>
    <g id="xtick_3">
     <g id="line2d_3">
      <g>
       <use xlink:href="#m090027707c" x="244.256415" y="92.31" style="stroke: #000000; stroke-width: 0.8"/>
      </g>
     </g>
    </g>
    <g id="xtick_4">
     <g id="line2d_4">
      <g>
       <use xlink:href="#m090027707c" x="331.247123" y="92.31" style="stroke: #000000; stroke-width: 0.8"/>
      </g>
     </g>
    </g>
    <g id="xtick_5">
     <g id="line2d_5">
      <g>
       <use xlink:href="#m090027707c" x="418.237831" y="92.31" style="stroke: #000000; stroke-width: 0.8"/>
      </g>
     </g>
    </g>
    <g id="xtick_6">
     <g id="line2d_6">
      <g>
       <use xlink:href="#m090027707c" x="505.228538" y="92.31" style="stroke: #000000; stroke-width: 0.8"/>
      </g>
     </g>
    </g>
    <g id="xtick_7">
     <g id="line2d_7">
      <g>
       <use xlink:href="#m090027707c" x="592.219246" y="92.31" style="stroke: #000000; stroke-width: 0.8"/>
      </g>
     </g>
    </g>
    <g id="xtick_8">
     <g id="line2d_8">
      <g>
       <use xlink:href="#m090027707c" x="679.209954" y="92.31" style="stroke: #000000; stroke-width: 0.8"/>
      </g>
     </g>
    </g>
   </g>
   <g id="matplotlib.axis_2">
    <g id="ytick_1">
     <g id="line2d_9">
      <defs>
       <path id="me9dbfaae9f" d="M 0 0 
L -3.5 0 
" style="stroke: #000000; stroke-width: 0.8"/>
      </defs>
      <g>
       <use xlink:href="#me9dbfaae9f" x="39.85" y="76.344755" style="stroke: #000000; stroke-width: 0.8"/>
      </g>
     </g>
     <g id="text_1">
      <!-- 9 -->
      <g transform="translate(26.4875 80.143974) scale(0.1 -0.1)">
       <defs>
        <path id="DejaVuSans-39" d="M 703 97 
L 703 672 
Q 941 559 1184 500 
Q 1428 441 1663 441 
Q 2288 441 2617 861 
Q 2947 1281 2994 2138 
Q 2813 1869 2534 1725 
Q 2256 1581 1919 1581 
Q 1219 1581 811 2004 
Q 403 2428 403 3163 
Q 403 3881 828 4315 
Q 1253 4750 1959 4750 
Q 2769 4750 3195 4129 
Q 3622 3509 3622 2328 
Q 3622 1225 3098 567 
Q 2575 -91 1691 -91 
Q 1453 -91 1209 -44 
Q 966 3 703 97 
z
M 1959 2075 
Q 2384 2075 2632 2365 
Q 2881 2656 2881 3163 
Q 2881 3666 2632 3958 
Q 2384 4250 1959 4250 
Q 1534 4250 1286 3958 
Q 1038 3666 1038 3163 
Q 1038 2656 1286 2365 
Q 1534 2075 1959 2075 
z
" transform="scale(0.015625)"/>
       </defs>
       <use xlink:href="#DejaVuSans-39"/>
      </g>
     </g>
    </g>
    <g id="ytick_2">
     <g id="line2d_10">
      <g>
       <use xlink:href="#me9dbfaae9f" x="39.85" y="56.173547" style="stroke: #000000; stroke-width: 0.8"/>
      </g>
     </g>
     <g id="text_2">
      <!-- 10 -->
      <g transform="translate(20.125 59.972766) scale(0.1 -0.1)">
       <defs>
        <path id="DejaVuSans-31" d="M 794 531 
L 1825 531 
L 1825 4091 
L 703 3866 
L 703 4441 
L 1819 4666 
L 2450 4666 
L 2450 531 
L 3481 531 
L 3481 0 
L 794 0 
L 794 531 
z
" transform="scale(0.015625)"/>
        <path id="DejaVuSans-30" d="M 2034 4250 
Q 1547 4250 1301 3770 
Q 1056 3291 1056 2328 
Q 1056 1369 1301 889 
Q 1547 409 2034 409 
Q 2525 409 2770 889 
Q 3016 1369 3016 2328 
Q 3016 3291 2770 3770 
Q 2525 4250 2034 4250 
z
M 2034 4750 
Q 2819 4750 3233 4129 
Q 3647 3509 3647 2328 
Q 3647 1150 3233 529 
Q 2819 -91 2034 -91 
Q 1250 -91 836 529 
Q 422 1150 422 2328 
Q 422 3509 836 4129 
Q 1250 4750 2034 4750 
z
" transform="scale(0.015625)"/>
       </defs>
       <use xlink:href="#DejaVuSans-31"/>
       <use xlink:href="#DejaVuSans-30" x="63.623047"/>
      </g>
     </g>
    </g>
    <g id="ytick_3">
     <g id="line2d_11">
      <g>
       <use xlink:href="#me9dbfaae9f" x="39.85" y="36.002338" style="stroke: #000000; stroke-width: 0.8"/>
      </g>
     </g>
     <g id="text_3">
      <!-- 11 -->
      <g transform="translate(20.125 39.801557) scale(0.1 -0.1)">
       <use xlink:href="#DejaVuSans-31"/>
       <use xlink:href="#DejaVuSans-31" x="63.623047"/>
      </g>
     </g>
    </g>
   </g>
   <g id="line2d_12">
    <path d="M 70.275 36.829986 
L 70.709954 38.610712 
L 71.579861 36.426375 
L 72.014814 40.633947 
L 72.449768 41.347485 
L 72.884721 38.451514 
L 73.319675 40.896546 
L 73.754628 44.242378 
L 74.189582 43.092395 
L 74.624535 46.050756 
L 75.059489 47.019442 
L 75.494442 46.587768 
L 75.929396 51.959644 
L 76.36435 52.629624 
L 76.799303 51.356517 
L 77.234257 53.356129 
L 77.66921 51.785376 
L 78.104164 55.3688 
L 78.539117 57.512254 
L 78.974071 52.838095 
L 79.409024 57.382118 
L 79.843978 57.920328 
L 80.278931 62.054337 
L 80.713885 61.392966 
L 81.148838 61.172584 
L 81.583792 64.803012 
L 82.018746 62.788607 
L 82.453699 65.799881 
L 82.888653 66.192073 
L 83.323606 67.803064 
L 83.75856 63.80592 
L 84.193513 68.486432 
L 84.628467 71.471045 
L 85.06342 68.515172 
L 85.498374 73.429648 
L 85.933327 71.291859 
L 86.368281 76.363193 
L 86.803234 75.735393 
L 87.238188 73.251972 
L 87.673142 72.69721 
L 88.108095 74.322079 
L 88.978002 76.06089 
L 89.412956 78.738223 
L 89.847909 77.448514 
L 90.282863 77.103842 
L 90.717816 74.157491 
L 91.15277 75.648487 
L 91.587723 79.886097 
L 92.022677 75.60083 
L 92.45763 76.892747 
L 92.892584 77.28003 
L 93.327538 74.417177 
L 93.762491 73.246386 
L 94.197445 73.062219 
L 94.632398 76.189082 
L 95.502305 72.767574 
L 95.937259 70.855261 
L 96.372212 73.124426 
L 96.807166 71.816827 
L 97.242119 72.910287 
L 97.677073 72.282212 
L 98.112026 67.377844 
L 98.54698 65.388128 
L 98.981934 67.338449 
L 99.416887 64.203595 
L 99.851841 64.501344 
L 100.286794 65.506521 
L 101.156701 58.979077 
L 101.591655 61.062259 
L 102.026608 56.727253 
L 102.461562 64.049316 
L 102.896515 55.980577 
L 103.331469 56.331734 
L 103.766422 55.978265 
L 104.201376 54.060367 
L 104.63633 57.13103 
L 105.071283 52.450987 
L 105.506237 50.186688 
L 105.94119 46.841675 
L 106.376144 49.803929 
L 106.811097 49.348457 
L 107.246051 47.715489 
L 107.681004 43.872503 
L 108.115958 44.104386 
L 108.550911 44.920583 
L 108.985865 41.939969 
L 109.420818 41.94436 
L 109.855772 39.395405 
L 110.290726 42.021217 
L 110.725679 40.570891 
L 111.160633 40.056997 
L 111.595586 41.627537 
L 112.03054 37.542658 
L 112.465493 37.134728 
L 113.3354 37.35349 
L 113.770354 39.435387 
L 114.205307 37.190754 
L 114.640261 36.857893 
L 115.075214 37.67226 
L 115.945122 35.204036 
L 116.380075 32.292211 
L 116.815029 35.885812 
L 117.249982 35.922341 
L 117.684936 36.858084 
L 118.119889 40.905712 
L 118.554843 37.476502 
L 118.989796 37.748312 
L 119.42475 33.405602 
L 119.859703 39.322813 
L 120.294657 38.941396 
L 120.72961 40.286907 
L 121.164564 43.291767 
L 121.599518 39.394719 
L 122.034471 40.994325 
L 122.469425 41.76964 
L 122.904378 46.094131 
L 123.339332 42.36226 
L 123.774285 48.986249 
L 124.209239 45.97302 
L 124.644192 43.765015 
L 125.079146 51.233283 
L 125.514099 51.451226 
L 125.949053 51.20009 
L 126.384006 53.52387 
L 126.81896 56.754923 
L 127.253914 54.615521 
L 127.688867 58.027861 
L 128.123821 56.061928 
L 128.558774 60.001308 
L 128.993728 56.143593 
L 129.428681 61.963437 
L 129.863635 62.133415 
L 130.298588 60.926342 
L 130.733542 66.113487 
L 131.168495 64.211754 
L 131.603449 63.047014 
L 132.038402 69.909313 
L 132.473356 67.244479 
L 132.90831 68.006718 
L 133.343263 67.828992 
L 133.778217 72.734498 
L 134.21317 73.692015 
L 134.648124 70.717946 
L 135.083077 71.864836 
L 135.518031 72.600413 
L 135.952984 72.995305 
L 136.387938 75.599065 
L 136.822891 74.235245 
L 137.257845 74.530535 
L 137.692798 76.920897 
L 138.127752 72.013905 
L 138.997659 78.589219 
L 139.432613 74.971964 
L 139.867566 78.309054 
L 140.30252 74.738499 
L 140.737473 73.908759 
L 141.172427 77.757599 
L 141.60738 73.952542 
L 142.042334 74.794622 
L 142.477287 73.639223 
L 142.912241 71.081266 
L 143.347194 74.953187 
L 143.782148 75.471856 
L 144.217102 75.18299 
L 144.652055 74.417331 
L 145.087009 72.257978 
L 145.521962 70.694832 
L 145.956916 70.057458 
L 146.391869 68.134142 
L 146.826823 68.920595 
L 147.261776 65.118771 
L 147.69673 67.65105 
L 148.131683 60.662294 
L 148.566637 63.887724 
L 149.00159 65.851044 
L 149.436544 65.229412 
L 149.871497 61.021598 
L 150.306451 61.352724 
L 150.741405 58.354018 
L 151.176358 57.720528 
L 151.611312 57.69499 
L 152.046265 58.12482 
L 152.481219 58.340247 
L 153.351126 51.304884 
L 153.786079 51.487432 
L 154.221033 53.332436 
L 154.655986 49.387518 
L 155.09094 47.897109 
L 155.525893 49.418312 
L 155.960847 46.31341 
L 156.395801 45.524196 
L 156.830754 46.998423 
L 157.265708 43.05869 
L 157.700661 41.775746 
L 158.135615 39.890599 
L 158.570568 39.162347 
L 159.005522 43.326571 
L 159.440475 41.748238 
L 159.875429 38.177943 
L 160.745336 37.06065 
L 161.180289 29.854091 
L 161.615243 36.058356 
L 162.050197 34.563485 
L 162.48515 34.634741 
L 162.920104 35.011965 
L 163.355057 36.791196 
L 163.790011 34.516762 
L 164.224964 37.562426 
L 164.659918 36.500637 
L 165.094871 37.084876 
L 165.529825 36.086814 
L 165.964778 31.791913 
L 166.399732 40.498365 
L 166.834685 35.679861 
L 167.269639 40.709649 
L 167.704593 38.860001 
L 168.139546 36.220516 
L 169.009453 41.775073 
L 169.444407 41.715323 
L 169.87936 39.623077 
L 170.314314 43.236414 
L 170.749267 42.141227 
L 171.184221 43.343438 
L 171.619174 45.647367 
L 172.054128 40.943372 
L 172.489081 44.958593 
L 172.924035 51.322868 
L 173.358989 47.89059 
L 173.793942 50.655289 
L 174.228896 48.676213 
L 174.663849 53.087777 
L 175.533756 52.698321 
L 175.96871 53.09787 
L 176.403663 58.396796 
L 176.838617 57.782456 
L 177.708524 60.677329 
L 178.143477 56.910941 
L 179.013385 65.196516 
L 179.448338 61.863346 
L 179.883292 60.472 
L 180.318245 63.680868 
L 180.753199 69.808841 
L 181.188152 68.668154 
L 181.623106 66.046898 
L 182.058059 70.90172 
L 182.493013 69.408972 
L 182.927966 69.5271 
L 183.36292 73.697784 
L 183.797873 72.637221 
L 184.232827 79.692779 
L 184.667781 75.80516 
L 185.102734 74.777056 
L 185.537688 77.256263 
L 185.972641 71.859801 
L 186.407595 78.390779 
L 186.842548 76.686158 
L 187.277502 75.765504 
L 187.712455 73.290128 
L 188.147409 79.198691 
L 188.582362 73.997752 
L 189.452269 78.216442 
L 189.887223 75.155857 
L 190.322177 75.475055 
L 190.75713 76.813817 
L 191.192084 75.127613 
L 191.627037 75.650776 
L 192.496944 72.5729 
L 192.931898 70.142157 
L 193.366851 75.216921 
L 193.801805 67.744129 
L 194.236758 75.260915 
L 194.671712 70.858354 
L 195.106665 68.549041 
L 195.541619 68.309784 
L 195.976573 69.233443 
L 196.411526 67.460802 
L 196.84648 67.064807 
L 197.281433 66.257371 
L 197.716387 62.324961 
L 198.15134 62.263945 
L 198.586294 63.305689 
L 199.021247 58.999255 
L 199.456201 59.085225 
L 199.891154 56.945546 
L 200.326108 56.187652 
L 200.761061 57.998329 
L 201.196015 56.324075 
L 201.630969 52.557802 
L 202.065922 51.711698 
L 202.500876 51.872934 
L 202.935829 50.495677 
L 203.370783 47.073849 
L 203.805736 49.783588 
L 204.24069 46.449913 
L 204.675643 46.95164 
L 205.110597 46.003543 
L 205.54555 42.402176 
L 205.980504 42.044074 
L 206.415457 41.197861 
L 206.850411 39.377287 
L 207.285365 41.18464 
L 207.720318 39.114933 
L 208.155272 40.429282 
L 208.590225 38.514055 
L 209.025179 38.848537 
L 209.460132 37.86387 
L 209.895086 36.389595 
L 210.330039 38.829678 
L 210.764993 32.607608 
L 211.199946 38.567397 
L 211.6349 38.759104 
L 212.069853 33.808278 
L 212.504807 34.444947 
L 212.939761 34.743832 
L 213.374714 34.759794 
L 213.809668 36.139911 
L 214.244621 38.076243 
L 214.679575 36.327357 
L 215.114528 38.122122 
L 215.549482 35.126394 
L 215.984435 37.787203 
L 216.419389 39.611808 
L 216.854342 39.108494 
L 217.289296 38.19664 
L 217.724249 40.790044 
L 218.159203 41.986887 
L 218.594157 40.562174 
L 219.02911 41.332585 
L 219.464064 43.667475 
L 219.899017 44.455874 
L 220.333971 43.938399 
L 220.768924 48.265248 
L 221.203878 49.155248 
L 221.638831 48.768408 
L 222.508738 48.778521 
L 222.943692 47.506557 
L 223.378645 49.847327 
L 223.813599 53.009229 
L 224.248553 53.845242 
L 224.683506 56.956835 
L 225.11846 56.103586 
L 225.553413 57.780471 
L 225.988367 57.675991 
L 226.42332 61.117533 
L 226.858274 59.512959 
L 227.293227 58.566637 
L 227.728181 62.958269 
L 228.163134 62.98843 
L 228.598088 63.442445 
L 229.033041 66.652388 
L 229.467995 66.369117 
L 229.902949 67.74025 
L 230.337902 68.476613 
L 230.772856 71.101492 
L 231.207809 70.319276 
L 231.642763 70.145943 
L 232.077716 68.957894 
L 232.51267 70.635116 
L 232.947623 68.860244 
L 233.382577 75.331039 
L 233.81753 72.547878 
L 234.252484 74.404741 
L 234.687437 70.765967 
L 235.122391 77.162103 
L 235.557345 77.513097 
L 235.992298 77.254032 
L 236.427252 80.492234 
L 236.862205 77.368561 
L 237.297159 77.87584 
L 237.732112 76.014187 
L 238.167066 75.537687 
L 238.602019 72.288902 
L 239.036973 73.939859 
L 239.471926 76.742256 
L 239.90688 77.051234 
L 240.341833 73.84714 
L 240.776787 77.044034 
L 241.211741 70.170886 
L 241.646694 70.914537 
L 242.081648 73.614502 
L 242.516601 75.446254 
L 242.951555 68.532428 
L 243.386508 70.719545 
L 243.821462 67.171727 
L 244.256415 72.022232 
L 245.126322 66.953987 
L 245.561276 65.89656 
L 245.996229 65.89499 
L 246.431183 62.698846 
L 246.866137 65.052267 
L 247.30109 62.108291 
L 248.605951 57.059807 
L 249.040904 59.635807 
L 249.475858 59.330048 
L 249.910811 52.526418 
L 250.345765 53.304791 
L 250.780718 54.363286 
L 251.215672 48.613488 
L 251.650625 50.411832 
L 252.085579 47.186608 
L 252.520533 48.370253 
L 252.955486 43.31488 
L 253.39044 42.923553 
L 253.825393 45.989701 
L 254.260347 42.584627 
L 254.6953 42.336136 
L 255.130254 40.010275 
L 255.565207 43.8926 
L 256.000161 39.782474 
L 256.435114 38.29873 
L 256.870068 43.298261 
L 257.305021 41.506163 
L 257.739975 42.655218 
L 258.174929 38.563274 
L 259.044836 34.118492 
L 259.479789 36.653286 
L 259.914743 33.23248 
L 260.349696 39.07821 
L 260.78465 39.569728 
L 261.219603 36.14841 
L 261.654557 35.22767 
L 262.08951 36.097896 
L 262.524464 40.29526 
L 262.959417 36.46095 
L 263.394371 39.131338 
L 263.829325 35.430126 
L 264.264278 36.383437 
L 264.699232 39.420762 
L 265.134185 39.022202 
L 265.569139 40.640299 
L 266.439046 37.778452 
L 266.873999 42.372918 
L 267.308953 40.097115 
L 267.743906 42.960132 
L 268.17886 44.311562 
L 268.613813 43.792254 
L 269.048767 46.56838 
L 269.483721 46.537604 
L 269.918674 48.811626 
L 270.353628 43.437618 
L 270.788581 48.362563 
L 271.223535 50.902499 
L 271.658488 50.137875 
L 272.528395 53.2216 
L 272.963349 52.658026 
L 273.398302 53.497061 
L 273.833256 57.22692 
L 274.268209 58.450172 
L 274.703163 58.971819 
L 275.138117 64.181519 
L 275.57307 63.705247 
L 276.008024 58.98833 
L 276.442977 59.506382 
L 276.877931 64.38486 
L 277.312884 63.753293 
L 277.747838 65.294656 
L 278.182791 60.6875 
L 278.617745 65.581355 
L 279.052698 69.002637 
L 279.922605 73.673332 
L 280.357559 70.800588 
L 281.227466 75.491539 
L 281.66242 74.556068 
L 282.097373 76.008824 
L 282.532327 70.943777 
L 283.402234 75.229254 
L 283.837187 72.571708 
L 284.272141 75.683561 
L 284.707094 77.797659 
L 285.142048 73.146081 
L 285.577001 75.226263 
L 286.011955 78.437005 
L 286.446909 76.696579 
L 286.881862 77.983304 
L 287.316816 78.847628 
L 287.751769 73.968766 
L 288.186723 71.702121 
L 288.621676 78.030328 
L 289.05663 73.669295 
L 289.491583 75.654216 
L 289.926537 74.804055 
L 290.36149 74.440461 
L 290.796444 74.35858 
L 291.231397 71.836401 
L 291.666351 72.87921 
L 292.101305 69.878991 
L 292.536258 69.70242 
L 292.971212 69.217311 
L 293.406165 69.66065 
L 293.841119 68.051334 
L 294.276072 64.388374 
L 294.711026 63.895166 
L 295.145979 65.843398 
L 295.580933 62.612905 
L 296.015886 60.218429 
L 296.45084 64.004738 
L 296.885793 58.430535 
L 297.320747 59.741798 
L 297.755701 56.125856 
L 298.190654 57.684548 
L 298.625608 58.653857 
L 299.060561 57.168028 
L 299.495515 52.667181 
L 299.930468 51.130122 
L 300.365422 52.382209 
L 300.800375 48.191748 
L 301.235329 51.774217 
L 301.670282 47.523307 
L 302.105236 48.827744 
L 302.975143 44.37489 
L 303.410096 45.302647 
L 303.84505 43.479097 
L 304.280004 39.852342 
L 304.714957 42.269602 
L 305.149911 38.691511 
L 305.584864 41.976992 
L 306.019818 38.002502 
L 306.454771 35.590195 
L 306.889725 42.966145 
L 307.759632 35.954987 
L 308.194585 37.18724 
L 308.629539 35.748802 
L 309.064492 37.497531 
L 309.499446 35.949014 
L 309.9344 36.345327 
L 310.369353 33.646846 
L 310.804307 35.523859 
L 311.23926 35.454171 
L 311.674214 37.127201 
L 312.109167 37.503825 
L 312.544121 37.678581 
L 312.979074 36.357219 
L 313.414028 38.408804 
L 313.848981 37.440516 
L 314.283935 34.361276 
L 315.153842 40.415196 
L 315.588796 38.018134 
L 316.458703 46.065795 
L 316.893656 44.813278 
L 317.32861 47.420855 
L 317.763563 45.263151 
L 318.198517 45.46043 
L 318.63347 43.09312 
L 319.068424 46.822919 
L 319.503377 48.959382 
L 319.938331 47.903601 
L 320.373284 55.116708 
L 320.808238 51.27867 
L 321.243192 51.310282 
L 321.678145 56.969399 
L 322.113099 52.808413 
L 322.983006 58.216806 
L 323.417959 57.230616 
L 323.852913 55.047293 
L 324.287866 60.370367 
L 324.72282 61.331801 
L 325.157773 63.836526 
L 325.592727 65.680401 
L 326.02768 63.322944 
L 326.462634 67.728521 
L 326.897588 66.830236 
L 327.332541 68.876952 
L 327.767495 67.849173 
L 328.202448 69.004338 
L 328.637402 68.404024 
L 329.072355 72.299994 
L 329.507309 72.54239 
L 329.942262 74.649235 
L 330.377216 74.196079 
L 330.812169 73.109799 
L 331.247123 72.859134 
L 331.682076 76.704017 
L 332.11703 73.488796 
L 332.551984 72.847324 
L 332.986937 75.025622 
L 333.421891 72.289579 
L 333.856844 77.789154 
L 334.726751 79.932418 
L 335.161705 73.289628 
L 336.031612 76.155063 
L 336.466565 75.25185 
L 336.901519 77.798575 
L 337.336472 70.245712 
L 337.771426 74.509313 
L 338.20638 74.081588 
L 338.641333 72.313454 
L 339.51124 72.111562 
L 339.946194 73.47206 
L 340.816101 66.564007 
L 341.251054 66.81947 
L 341.686008 65.450667 
L 342.120961 68.787116 
L 342.555915 68.807205 
L 342.990868 66.086383 
L 343.425822 64.711421 
L 343.860776 61.580621 
L 344.295729 66.141565 
L 344.730683 58.561642 
L 345.165636 60.867675 
L 345.60059 60.298263 
L 346.470497 60.5244 
L 346.90545 54.393935 
L 347.340404 54.77487 
L 347.775357 56.3971 
L 348.210311 55.28725 
L 348.645264 52.243088 
L 349.080218 47.104521 
L 349.515172 49.918102 
L 349.950125 51.371192 
L 350.385079 47.804246 
L 350.820032 46.855983 
L 351.254986 50.774218 
L 351.689939 44.50635 
L 352.124893 43.962319 
L 352.9948 38.088801 
L 353.429753 38.773446 
L 353.864707 40.863406 
L 354.29966 41.878131 
L 354.734614 33.832542 
L 355.169568 38.335093 
L 356.039475 37.534761 
L 356.474428 36.689918 
L 356.909382 37.044185 
L 357.344335 37.634843 
L 357.779289 37.367542 
L 358.214242 36.180024 
L 358.649196 37.12281 
L 359.084149 37.440733 
L 359.519103 35.82789 
L 359.954056 36.660058 
L 360.38901 33.278273 
L 360.823964 41.888186 
L 361.258917 34.62987 
L 361.693871 34.669723 
L 362.128824 41.776998 
L 362.563778 38.755992 
L 362.998731 39.341081 
L 363.433685 42.013448 
L 363.868638 41.379326 
L 364.303592 42.73815 
L 364.738545 37.700442 
L 365.173499 40.131676 
L 365.608452 40.282839 
L 366.043406 42.262676 
L 366.47836 46.905709 
L 366.913313 46.632574 
L 367.348267 45.5671 
L 367.78322 50.02939 
L 368.218174 47.163116 
L 368.653127 50.147055 
L 369.088081 51.499834 
L 369.523034 50.408276 
L 369.957988 52.058476 
L 370.392941 54.805105 
L 370.827895 52.867473 
L 371.262848 58.518655 
L 371.697802 56.227122 
L 372.132756 57.400618 
L 372.567709 60.341167 
L 373.002663 60.167561 
L 373.437616 64.443037 
L 373.87257 61.131389 
L 374.307523 64.422613 
L 374.742477 66.133602 
L 375.17743 63.964731 
L 375.612384 68.471742 
L 376.047337 70.828045 
L 376.482291 72.025708 
L 376.917244 68.522139 
L 377.352198 73.143291 
L 377.787152 67.791522 
L 378.222105 76.253542 
L 378.657059 69.304928 
L 379.092012 72.921927 
L 379.961919 75.523997 
L 380.396873 74.072895 
L 380.831826 75.34815 
L 381.26678 73.380801 
L 381.701733 75.648711 
L 382.136687 75.786684 
L 382.57164 76.971295 
L 383.006594 76.437476 
L 383.441548 75.723014 
L 383.876501 79.751227 
L 384.311455 78.915367 
L 384.746408 74.527875 
L 385.181362 75.451131 
L 385.616315 75.873736 
L 386.051269 75.111364 
L 386.486222 74.033574 
L 386.921176 75.351106 
L 387.356129 75.302941 
L 387.791083 72.753297 
L 388.226036 74.483685 
L 388.66099 70.997068 
L 389.095944 74.515952 
L 389.530897 68.219803 
L 389.965851 68.51205 
L 390.400804 68.076614 
L 391.270711 63.374511 
L 391.705665 63.706921 
L 392.140618 68.455164 
L 393.880432 59.416294 
L 394.315386 60.811673 
L 394.75034 57.848314 
L 395.185293 58.619564 
L 395.620247 57.197285 
L 396.0552 57.669761 
L 396.490154 55.56743 
L 396.925107 55.312247 
L 397.360061 53.446073 
L 397.795014 48.258976 
L 398.229968 51.224272 
L 398.664921 42.945937 
L 399.099875 46.232185 
L 399.534828 45.854116 
L 399.969782 46.989391 
L 400.404736 42.91079 
L 400.839689 44.587289 
L 401.274643 42.322973 
L 401.709596 36.590871 
L 402.14455 41.179856 
L 402.579503 37.946943 
L 403.014457 41.012758 
L 403.44941 39.04638 
L 403.884364 34.839512 
L 404.319317 39.167691 
L 404.754271 33.796256 
L 405.624178 37.863268 
L 406.059132 35.182702 
L 406.494085 34.288345 
L 406.929039 34.850376 
L 407.363992 39.189746 
L 407.798946 37.470401 
L 408.233899 36.547769 
L 408.668853 36.306864 
L 409.103806 35.076051 
L 409.53876 36.203407 
L 409.973713 39.551026 
L 410.408667 36.447056 
L 410.84362 36.39856 
L 411.278574 36.975673 
L 411.713528 36.456358 
L 412.148481 37.541143 
L 413.018388 40.696689 
L 413.453342 44.646367 
L 413.888295 41.217146 
L 414.323249 42.496931 
L 414.758202 43.241953 
L 415.193156 47.278034 
L 415.628109 47.83236 
L 416.063063 44.509616 
L 416.498016 47.726011 
L 416.93297 47.310695 
L 417.367924 49.690977 
L 417.802877 50.771056 
L 418.237831 50.03826 
L 418.672784 54.084998 
L 419.107738 53.973228 
L 419.542691 56.228945 
L 420.412598 58.183569 
L 420.847552 58.238816 
L 421.282505 60.771617 
L 421.717459 58.380503 
L 422.152412 63.810702 
L 422.587366 63.457392 
L 423.02232 65.019956 
L 423.457273 62.241672 
L 423.892227 65.763047 
L 424.32718 65.045822 
L 424.762134 71.056875 
L 425.197087 68.417336 
L 425.632041 68.016928 
L 426.066994 70.457886 
L 426.501948 69.241571 
L 426.936901 73.15317 
L 427.371855 69.935663 
L 427.806808 68.757762 
L 428.241762 74.688974 
L 428.676716 75.361852 
L 429.111669 71.980074 
L 429.546623 72.115002 
L 429.981576 76.685058 
L 430.41653 76.745844 
L 430.851483 76.67241 
L 431.286437 78.958877 
L 431.72139 78.179682 
L 432.156344 78.368317 
L 432.591297 77.844226 
L 433.026251 76.25469 
L 433.461204 75.538476 
L 433.896158 72.647051 
L 434.331112 77.490322 
L 434.766065 73.132126 
L 435.201019 75.130676 
L 435.635972 74.321849 
L 436.070926 72.327054 
L 436.505879 75.363897 
L 436.940833 71.685519 
L 437.375786 71.427479 
L 437.81074 70.027126 
L 438.245693 69.647618 
L 438.680647 64.444422 
L 439.1156 69.807946 
L 439.550554 68.678213 
L 439.985508 67.913632 
L 440.855415 65.945485 
L 441.290368 61.221261 
L 441.725322 59.690714 
L 442.160275 62.623587 
L 442.595229 62.05087 
L 443.030182 58.307362 
L 443.465136 59.248802 
L 443.900089 55.728658 
L 444.335043 55.463874 
L 444.769996 57.799416 
L 445.20495 50.493765 
L 445.639904 48.874121 
L 446.074857 52.625632 
L 446.509811 51.079617 
L 446.944764 48.647479 
L 447.379718 47.497888 
L 447.814671 45.817799 
L 448.249625 42.093415 
L 448.684578 45.538832 
L 449.554485 46.138331 
L 450.424392 41.758485 
L 450.859346 37.306785 
L 451.294299 41.253713 
L 451.729253 39.091524 
L 452.164207 38.961762 
L 453.034114 32.767689 
L 453.469067 38.489473 
L 453.904021 38.018829 
L 454.338974 34.59861 
L 454.773928 35.063932 
L 455.208881 32.511119 
L 456.078788 36.743311 
L 456.513742 34.813502 
L 456.948695 33.818433 
L 457.818603 35.321203 
L 458.253556 34.431627 
L 458.68851 34.525157 
L 459.123463 34.457095 
L 459.99337 38.482388 
L 460.428324 38.385421 
L 460.863277 36.838871 
L 461.298231 41.564841 
L 461.733184 39.868985 
L 462.168138 42.150745 
L 462.603091 42.090726 
L 463.038045 40.405481 
L 463.472999 43.475925 
L 463.907952 44.683643 
L 464.342906 48.47213 
L 464.777859 45.208586 
L 465.212813 46.426389 
L 465.647766 44.406012 
L 466.08272 50.454862 
L 466.517673 50.476437 
L 466.952627 51.516463 
L 467.38758 49.951687 
L 467.822534 54.449501 
L 468.692441 55.292989 
L 469.562348 59.677258 
L 469.997302 59.503495 
L 470.432255 68.921482 
L 470.867209 74.249044 
L 471.302162 72.982884 
L 471.737116 75.713959 
L 472.172069 72.916466 
L 472.607023 79.39619 
L 473.47693 77.458114 
L 473.911883 75.953713 
L 474.346837 80.096263 
L 474.781791 81.892433 
L 475.216744 77.741169 
L 475.651698 85.171537 
L 476.086651 87.350615 
L 476.521605 82.639954 
L 476.956558 85.097969 
L 477.391512 86.646795 
L 477.826465 83.601837 
L 478.261419 84.923588 
L 479.131326 88.585165 
L 479.566279 84.443522 
L 480.001233 85.029735 
L 480.436187 86.615939 
L 480.87114 82.702107 
L 481.306094 88.53305 
L 481.741047 89.335909 
L 482.610954 85.93057 
L 483.045908 85.044793 
L 483.480861 85.658523 
L 483.915815 84.038473 
L 484.350768 86.79155 
L 484.785722 80.816489 
L 485.220675 83.301093 
L 485.655629 80.235137 
L 486.090583 81.099875 
L 486.96049 79.102109 
L 487.395443 78.511038 
L 487.830397 77.238943 
L 488.26535 74.936922 
L 488.700304 76.268377 
L 489.135257 74.248652 
L 489.570211 74.84414 
L 490.005164 70.716096 
L 490.875071 57.752144 
L 491.310025 60.364261 
L 491.744979 62.054753 
L 492.179932 57.786316 
L 492.614886 58.288598 
L 493.049839 54.086935 
L 493.484793 55.968049 
L 493.919746 54.425441 
L 494.3547 56.219018 
L 494.789653 52.21396 
L 495.224607 55.100229 
L 495.65956 52.334051 
L 496.094514 46.555599 
L 496.529467 45.480186 
L 496.964421 45.211531 
L 497.399375 47.056565 
L 497.834328 44.273496 
L 498.269282 43.293521 
L 498.704235 44.77242 
L 499.139189 38.596212 
L 499.574142 39.097721 
L 500.009096 40.600124 
L 500.879003 38.461481 
L 501.313956 42.444707 
L 501.74891 38.325568 
L 502.183863 38.761133 
L 502.618817 39.023584 
L 503.053771 37.248319 
L 503.488724 32.794682 
L 504.358631 37.239364 
L 504.793585 34.860176 
L 505.228538 33.183909 
L 505.663492 34.196458 
L 506.533399 37.666199 
L 506.968352 35.19662 
L 507.403306 36.116742 
L 507.838259 35.470861 
L 508.273213 36.421022 
L 508.708167 36.069033 
L 509.14312 39.806285 
L 509.578074 36.664823 
L 510.013027 39.572197 
L 510.447981 36.484392 
L 510.882934 42.809133 
L 511.317888 38.712312 
L 511.752841 42.653739 
L 512.187795 45.247267 
L 513.057702 46.452923 
L 513.492655 45.938384 
L 513.927609 46.756142 
L 514.362563 50.011124 
L 514.797516 49.969229 
L 515.23247 46.684788 
L 515.667423 48.62353 
L 516.102377 52.343071 
L 516.53733 54.270823 
L 516.972284 55.235409 
L 517.407237 55.372226 
L 517.842191 59.803726 
L 518.277144 59.385716 
L 518.712098 63.349734 
L 519.147051 60.284152 
L 519.582005 60.873907 
L 520.016959 64.225047 
L 520.451912 61.124204 
L 520.886866 67.794764 
L 521.321819 69.270363 
L 521.756773 66.826131 
L 522.191726 66.094098 
L 522.62668 65.698967 
L 523.061633 70.869993 
L 523.496587 68.573863 
L 523.93154 71.586767 
L 524.366494 72.568378 
L 524.801447 71.098235 
L 525.236401 72.172744 
L 525.671355 77.221649 
L 526.106308 71.560532 
L 526.541262 72.194231 
L 526.976215 76.619776 
L 527.411169 74.879009 
L 527.846122 74.938872 
L 528.281076 75.60531 
L 528.716029 77.374 
L 529.150983 77.688258 
L 529.585936 76.391081 
L 530.02089 73.916482 
L 530.455843 75.064635 
L 530.890797 76.724861 
L 531.325751 74.174424 
L 531.760704 81.169012 
L 532.195658 72.737429 
L 532.630611 78.135819 
L 533.065565 74.871529 
L 533.500518 75.856175 
L 533.935472 75.611518 
L 534.370425 70.007766 
L 534.805379 72.591041 
L 535.240332 70.198272 
L 535.675286 70.195045 
L 536.110239 68.297458 
L 536.545193 68.222822 
L 536.980147 70.045351 
L 537.4151 64.491876 
L 537.850054 66.508958 
L 538.285007 67.634902 
L 538.719961 64.314524 
L 539.154914 59.356697 
L 539.589868 59.582289 
L 540.024821 60.897797 
L 540.894728 58.603274 
L 541.329682 52.635244 
L 541.764635 54.921633 
L 542.199589 53.693862 
L 542.634543 51.357447 
L 543.069496 51.836958 
L 543.50445 51.736262 
L 544.80931 48.081612 
L 545.244264 45.516784 
L 545.679217 45.886643 
L 546.114171 43.552607 
L 546.549124 44.267363 
L 546.984078 43.058076 
L 547.419031 46.400275 
L 547.853985 39.717783 
L 548.288939 40.109708 
L 548.723892 38.086413 
L 549.158846 45.283168 
L 549.593799 34.622838 
L 550.028753 38.565814 
L 550.463706 35.554176 
L 550.89866 39.450326 
L 551.333613 35.739168 
L 551.768567 38.783062 
L 552.20352 37.660891 
L 552.638474 32.348616 
L 553.073427 36.463756 
L 553.508381 35.573532 
L 553.943335 34.253608 
L 554.813242 35.888687 
L 555.248195 35.642292 
L 555.683149 31.779218 
L 556.118102 37.053744 
L 556.553056 36.902812 
L 556.988009 35.61953 
L 557.857916 36.377909 
L 558.29287 38.083731 
L 558.727823 42.330481 
L 559.162777 37.433729 
L 559.597731 43.793197 
L 560.032684 41.669043 
L 560.467638 44.643355 
L 560.902591 44.134783 
L 561.337545 44.264114 
L 562.207452 46.02321 
L 562.642405 44.638238 
L 563.077359 48.02356 
L 563.512312 50.498788 
L 563.947266 49.148948 
L 564.382219 49.797662 
L 564.817173 55.78907 
L 565.252127 53.232692 
L 565.68708 54.153722 
L 566.122034 57.300554 
L 566.556987 55.055966 
L 566.991941 59.258991 
L 567.426894 59.819618 
L 567.861848 61.526351 
L 568.296801 62.234377 
L 568.731755 65.546483 
L 569.166708 67.286717 
L 569.601662 62.186584 
L 570.036615 68.103169 
L 570.471569 69.35415 
L 570.906523 72.622457 
L 571.341476 70.453948 
L 571.77643 72.679257 
L 572.211383 67.500024 
L 572.646337 69.530862 
L 573.08129 73.662981 
L 573.516244 68.387842 
L 574.386151 74.738955 
L 574.821104 79.617777 
L 575.256058 70.389523 
L 575.691011 78.188672 
L 576.125965 79.019274 
L 576.560919 73.890701 
L 576.995872 71.222794 
L 577.865779 75.19886 
L 578.300733 75.13758 
L 578.735686 74.553234 
L 579.17064 74.617894 
L 579.605593 75.392677 
L 580.4755 75.522151 
L 580.910454 76.543396 
L 581.345407 75.155989 
L 581.780361 77.51398 
L 582.215315 73.750211 
L 582.650268 74.943966 
L 583.085222 74.521081 
L 583.955129 68.027305 
L 584.390082 68.18237 
L 584.825036 72.358524 
L 585.259989 70.301728 
L 585.694943 65.484546 
L 586.129896 68.405342 
L 586.999803 63.302958 
L 587.434757 65.319668 
L 587.869711 62.085101 
L 588.304664 63.900507 
L 589.174571 58.344372 
L 589.609525 61.077502 
L 590.044478 55.845253 
L 590.479432 55.641093 
L 590.914385 53.356583 
L 591.349339 52.894264 
L 591.784292 49.478104 
L 592.219246 50.873388 
L 592.654199 50.904289 
L 593.524107 46.82788 
L 593.95906 46.80539 
L 594.394014 45.831445 
L 594.828967 46.371031 
L 595.263921 45.369233 
L 595.698874 45.976616 
L 596.133828 38.774637 
L 596.568781 44.012822 
L 597.003735 42.147751 
L 597.438688 41.494066 
L 597.873642 37.585475 
L 598.308595 39.384169 
L 598.743549 35.725724 
L 599.178503 39.110931 
L 599.613456 36.757545 
L 600.04841 38.632601 
L 600.483363 32.308454 
L 600.918317 38.780444 
L 601.35327 35.571755 
L 601.788224 34.793027 
L 602.223177 35.17482 
L 602.658131 36.384854 
L 603.093084 36.338105 
L 603.528038 36.116325 
L 603.962991 36.692596 
L 604.832898 32.506086 
L 605.267852 38.46524 
L 605.702806 40.538844 
L 606.137759 38.446903 
L 606.572713 33.6147 
L 607.007666 41.043536 
L 607.44262 36.773053 
L 607.877573 37.402858 
L 608.312527 42.659752 
L 609.182434 39.906421 
L 609.617387 44.84253 
L 610.052341 45.413232 
L 610.922248 49.001647 
L 611.357202 49.285652 
L 611.792155 51.491866 
L 612.227109 50.023861 
L 612.662062 52.734481 
L 613.097016 51.814248 
L 613.531969 56.540972 
L 613.966923 53.860569 
L 614.401876 53.977302 
L 614.83683 60.812495 
L 615.271783 57.166685 
L 615.706737 56.569653 
L 616.14169 62.601758 
L 616.576644 57.891175 
L 617.446551 64.841876 
L 618.316458 64.357141 
L 618.751412 66.319431 
L 619.186365 66.342945 
L 619.621319 70.208263 
L 620.056272 68.892633 
L 620.491226 72.927836 
L 620.926179 71.098703 
L 621.361133 73.449461 
L 621.796086 73.812957 
L 622.23104 70.488184 
L 622.665994 71.379499 
L 623.100947 72.896519 
L 623.535901 76.81641 
L 623.970854 75.681075 
L 624.405808 72.966179 
L 624.840761 75.436965 
L 625.275715 71.292542 
L 625.710668 75.363246 
L 626.145622 75.891971 
L 626.580575 76.962273 
L 627.015529 76.065232 
L 627.450482 76.574479 
L 627.885436 74.707604 
L 628.32039 74.012278 
L 628.755343 77.271328 
L 629.62525 78.693958 
L 630.060204 73.52801 
L 630.495157 76.282983 
L 630.930111 77.848321 
L 631.800018 67.211716 
L 632.234971 71.543027 
L 632.669925 69.081439 
L 633.104878 69.803711 
L 633.539832 69.320771 
L 633.974786 66.379142 
L 634.409739 67.892283 
L 634.844693 65.806055 
L 635.279646 64.703118 
L 635.7146 65.677325 
L 636.149553 61.280621 
L 636.584507 62.564193 
L 637.01946 62.646271 
L 637.454414 58.934609 
L 637.889367 60.711995 
L 638.324321 57.717105 
L 638.759274 56.661574 
L 639.194228 53.320548 
L 639.629182 53.423246 
L 640.064135 53.306739 
L 640.934042 48.234105 
L 641.368996 48.826717 
L 641.803949 48.864174 
L 642.238903 50.487324 
L 642.673856 48.972043 
L 643.10881 46.451105 
L 643.543763 46.109313 
L 644.848624 41.169652 
L 645.283578 41.583973 
L 645.718531 39.710516 
L 646.153485 39.860656 
L 646.588438 43.325314 
L 647.458345 38.4919 
L 647.893299 40.155796 
L 648.328252 36.078162 
L 648.763206 33.832682 
L 649.198159 34.154766 
L 649.633113 36.798093 
L 650.068066 33.177382 
L 650.50302 35.764263 
L 650.937974 36.687235 
L 651.372927 37.251288 
L 651.807881 36.694309 
L 652.242834 37.000699 
L 652.677788 36.070337 
L 653.112741 36.348836 
L 653.547695 36.98668 
L 653.982648 36.491994 
L 654.417602 35.411438 
L 654.852555 36.395365 
L 655.287509 41.859847 
L 655.722462 44.624633 
L 656.157416 38.249487 
L 656.59237 43.602878 
L 657.027323 42.05899 
L 657.89723 46.895372 
L 658.332184 43.058208 
L 658.767137 43.546822 
L 659.202091 47.203708 
L 659.637044 52.261876 
L 660.071998 49.160678 
L 660.506951 48.317496 
L 660.941905 53.162194 
L 661.376858 50.899317 
L 661.811812 52.405638 
L 662.246766 52.323803 
L 662.681719 54.377093 
L 663.116673 57.711996 
L 663.551626 54.467804 
L 663.98658 58.33121 
L 664.421533 59.190726 
L 664.856487 62.133044 
L 665.29144 62.246717 
L 665.726394 64.223032 
L 666.161347 63.853107 
L 666.596301 61.094409 
L 667.031254 68.330916 
L 667.466208 69.805281 
L 667.901162 64.537215 
L 668.336115 68.845482 
L 668.771069 70.652761 
L 669.206022 68.044087 
L 669.640976 72.157829 
L 670.075929 68.00096 
L 670.945836 74.015626 
L 671.38079 69.274848 
L 671.815743 75.388157 
L 672.250697 73.152725 
L 672.68565 74.47096 
L 673.120604 72.814394 
L 673.555558 72.595194 
L 673.990511 75.923514 
L 674.425465 77.688493 
L 674.860418 75.358624 
L 675.295372 77.707789 
L 675.730325 72.270277 
L 676.165279 75.983367 
L 676.600232 76.85964 
L 677.035186 75.551329 
L 677.470139 78.380047 
L 677.905093 77.300064 
L 678.340046 72.535901 
L 678.775 75.84021 
L 678.775 75.84021 
" clip-path="url(#p6fcfb65cf4)" style="fill: none; stroke: #1f77b4; stroke-width: 1.5; stroke-linecap: square"/>
   </g>
   <g id="patch_3">
    <path d="M 39.85 92.31 
L 39.85 26.88 
" style="fill: none; stroke: #000000; stroke-width: 0.8; stroke-linejoin: miter; stroke-linecap: square"/>
   </g>
   <g id="patch_4">
    <path d="M 709.2 92.31 
L 709.2 26.88 
" style="fill: none; stroke: #000000; stroke-width: 0.8; stroke-linejoin: miter; stroke-linecap: square"/>
   </g>
   <g id="patch_5">
    <path d="M 39.85 92.31 
L 709.2 92.31 
" style="fill: none; stroke: #000000; stroke-width: 0.8; stroke-linejoin: miter; stroke-linecap: square"/>
   </g>
   <g id="patch_6">
    <path d="M 39.85 26.88 
L 709.2 26.88 
" style="fill: none; stroke: #000000; stroke-width: 0.8; stroke-linejoin: miter; stroke-linecap: square"/>
   </g>
   <g id="text_4">
    <!-- The trend data -->
    <g transform="translate(330.05 20.88) scale(0.12 -0.12)">
     <defs>
      <path id="DejaVuSans-54" d="M -19 4666 
L 3928 4666 
L 3928 4134 
L 2272 4134 
L 2272 0 
L 1638 0 
L 1638 4134 
L -19 4134 
L -19 4666 
z
" transform="scale(0.015625)"/>
      <path id="DejaVuSans-68" d="M 3513 2113 
L 3513 0 
L 2938 0 
L 2938 2094 
Q 2938 2591 2744 2837 
Q 2550 3084 2163 3084 
Q 1697 3084 1428 2787 
Q 1159 2491 1159 1978 
L 1159 0 
L 581 0 
L 581 4863 
L 1159 4863 
L 1159 2956 
Q 1366 3272 1645 3428 
Q 1925 3584 2291 3584 
Q 2894 3584 3203 3211 
Q 3513 2838 3513 2113 
z
" transform="scale(0.015625)"/>
      <path id="DejaVuSans-65" d="M 3597 1894 
L 3597 1613 
L 953 1613 
Q 991 1019 1311 708 
Q 1631 397 2203 397 
Q 2534 397 2845 478 
Q 3156 559 3463 722 
L 3463 178 
Q 3153 47 2828 -22 
Q 2503 -91 2169 -91 
Q 1331 -91 842 396 
Q 353 884 353 1716 
Q 353 2575 817 3079 
Q 1281 3584 2069 3584 
Q 2775 3584 3186 3129 
Q 3597 2675 3597 1894 
z
M 3022 2063 
Q 3016 2534 2758 2815 
Q 2500 3097 2075 3097 
Q 1594 3097 1305 2825 
Q 1016 2553 972 2059 
L 3022 2063 
z
" transform="scale(0.015625)"/>
      <path id="DejaVuSans-20" transform="scale(0.015625)"/>
      <path id="DejaVuSans-74" d="M 1172 4494 
L 1172 3500 
L 2356 3500 
L 2356 3053 
L 1172 3053 
L 1172 1153 
Q 1172 725 1289 603 
Q 1406 481 1766 481 
L 2356 481 
L 2356 0 
L 1766 0 
Q 1100 0 847 248 
Q 594 497 594 1153 
L 594 3053 
L 172 3053 
L 172 3500 
L 594 3500 
L 594 4494 
L 1172 4494 
z
" transform="scale(0.015625)"/>
      <path id="DejaVuSans-72" d="M 2631 2963 
Q 2534 3019 2420 3045 
Q 2306 3072 2169 3072 
Q 1681 3072 1420 2755 
Q 1159 2438 1159 1844 
L 1159 0 
L 581 0 
L 581 3500 
L 1159 3500 
L 1159 2956 
Q 1341 3275 1631 3429 
Q 1922 3584 2338 3584 
Q 2397 3584 2469 3576 
Q 2541 3569 2628 3553 
L 2631 2963 
z
" transform="scale(0.015625)"/>
      <path id="DejaVuSans-6e" d="M 3513 2113 
L 3513 0 
L 2938 0 
L 2938 2094 
Q 2938 2591 2744 2837 
Q 2550 3084 2163 3084 
Q 1697 3084 1428 2787 
Q 1159 2491 1159 1978 
L 1159 0 
L 581 0 
L 581 3500 
L 1159 3500 
L 1159 2956 
Q 1366 3272 1645 3428 
Q 1925 3584 2291 3584 
Q 2894 3584 3203 3211 
Q 3513 2838 3513 2113 
z
" transform="scale(0.015625)"/>
      <path id="DejaVuSans-64" d="M 2906 2969 
L 2906 4863 
L 3481 4863 
L 3481 0 
L 2906 0 
L 2906 525 
Q 2725 213 2448 61 
Q 2172 -91 1784 -91 
Q 1150 -91 751 415 
Q 353 922 353 1747 
Q 353 2572 751 3078 
Q 1150 3584 1784 3584 
Q 2172 3584 2448 3432 
Q 2725 3281 2906 2969 
z
M 947 1747 
Q 947 1113 1208 752 
Q 1469 391 1925 391 
Q 2381 391 2643 752 
Q 2906 1113 2906 1747 
Q 2906 2381 2643 2742 
Q 2381 3103 1925 3103 
Q 1469 3103 1208 2742 
Q 947 2381 947 1747 
z
" transform="scale(0.015625)"/>
      <path id="DejaVuSans-61" d="M 2194 1759 
Q 1497 1759 1228 1600 
Q 959 1441 959 1056 
Q 959 750 1161 570 
Q 1363 391 1709 391 
Q 2188 391 2477 730 
Q 2766 1069 2766 1631 
L 2766 1759 
L 2194 1759 
z
M 3341 1997 
L 3341 0 
L 2766 0 
L 2766 531 
Q 2569 213 2275 61 
Q 1981 -91 1556 -91 
Q 1019 -91 701 211 
Q 384 513 384 1019 
Q 384 1609 779 1909 
Q 1175 2209 1959 2209 
L 2766 2209 
L 2766 2266 
Q 2766 2663 2505 2880 
Q 2244 3097 1772 3097 
Q 1472 3097 1187 3025 
Q 903 2953 641 2809 
L 641 3341 
Q 956 3463 1253 3523 
Q 1550 3584 1831 3584 
Q 2591 3584 2966 3190 
Q 3341 2797 3341 1997 
z
" transform="scale(0.015625)"/>
     </defs>
     <use xlink:href="#DejaVuSans-54"/>
     <use xlink:href="#DejaVuSans-68" x="61.083984"/>
     <use xlink:href="#DejaVuSans-65" x="124.462891"/>
     <use xlink:href="#DejaVuSans-20" x="185.986328"/>
     <use xlink:href="#DejaVuSans-74" x="217.773438"/>
     <use xlink:href="#DejaVuSans-72" x="256.982422"/>
     <use xlink:href="#DejaVuSans-65" x="295.845703"/>
     <use xlink:href="#DejaVuSans-6e" x="357.369141"/>
     <use xlink:href="#DejaVuSans-64" x="420.748047"/>
     <use xlink:href="#DejaVuSans-20" x="484.224609"/>
     <use xlink:href="#DejaVuSans-64" x="516.011719"/>
     <use xlink:href="#DejaVuSans-61" x="579.488281"/>
     <use xlink:href="#DejaVuSans-74" x="640.767578"/>
     <use xlink:href="#DejaVuSans-61" x="679.976562"/>
    </g>
   </g>
  </g>
  <g id="axes_2">
   <g id="patch_7">
    <path d="M 39.85 188.12 
L 709.2 188.12 
L 709.2 122.69 
L 39.85 122.69 
L 39.85 188.12 
z
" style="fill: none"/>
   </g>
   <g id="matplotlib.axis_3">
    <g id="xtick_9">
     <g id="line2d_13">
      <g>
       <use xlink:href="#m090027707c" x="70.275" y="188.12" style="stroke: #000000; stroke-width: 0.8"/>
      </g>
     </g>
     <g id="text_5">
      <!-- 0 -->
      <g transform="translate(67.09375 202.718438) scale(0.1 -0.1)">
       <use xlink:href="#DejaVuSans-30"/>
      </g>
     </g>
    </g>
    <g id="xtick_10">
     <g id="line2d_14">
      <g>
       <use xlink:href="#m090027707c" x="157.265708" y="188.12" style="stroke: #000000; stroke-width: 0.8"/>
      </g>
     </g>
     <g id="text_6">
      <!-- 200 -->
      <g transform="translate(147.721958 202.718438) scale(0.1 -0.1)">
       <defs>
        <path id="DejaVuSans-32" d="M 1228 531 
L 3431 531 
L 3431 0 
L 469 0 
L 469 531 
Q 828 903 1448 1529 
Q 2069 2156 2228 2338 
Q 2531 2678 2651 2914 
Q 2772 3150 2772 3378 
Q 2772 3750 2511 3984 
Q 2250 4219 1831 4219 
Q 1534 4219 1204 4116 
Q 875 4013 500 3803 
L 500 4441 
Q 881 4594 1212 4672 
Q 1544 4750 1819 4750 
Q 2544 4750 2975 4387 
Q 3406 4025 3406 3419 
Q 3406 3131 3298 2873 
Q 3191 2616 2906 2266 
Q 2828 2175 2409 1742 
Q 1991 1309 1228 531 
z
" transform="scale(0.015625)"/>
       </defs>
       <use xlink:href="#DejaVuSans-32"/>
       <use xlink:href="#DejaVuSans-30" x="63.623047"/>
       <use xlink:href="#DejaVuSans-30" x="127.246094"/>
      </g>
     </g>
    </g>
    <g id="xtick_11">
     <g id="line2d_15">
      <g>
       <use xlink:href="#m090027707c" x="244.256415" y="188.12" style="stroke: #000000; stroke-width: 0.8"/>
      </g>
     </g>
     <g id="text_7">
      <!-- 400 -->
      <g transform="translate(234.712665 202.718438) scale(0.1 -0.1)">
       <defs>
        <path id="DejaVuSans-34" d="M 2419 4116 
L 825 1625 
L 2419 1625 
L 2419 4116 
z
M 2253 4666 
L 3047 4666 
L 3047 1625 
L 3713 1625 
L 3713 1100 
L 3047 1100 
L 3047 0 
L 2419 0 
L 2419 1100 
L 313 1100 
L 313 1709 
L 2253 4666 
z
" transform="scale(0.015625)"/>
       </defs>
       <use xlink:href="#DejaVuSans-34"/>
       <use xlink:href="#DejaVuSans-30" x="63.623047"/>
       <use xlink:href="#DejaVuSans-30" x="127.246094"/>
      </g>
     </g>
    </g>
    <g id="xtick_12">
     <g id="line2d_16">
      <g>
       <use xlink:href="#m090027707c" x="331.247123" y="188.12" style="stroke: #000000; stroke-width: 0.8"/>
      </g>
     </g>
     <g id="text_8">
      <!-- 600 -->
      <g transform="translate(321.703373 202.718438) scale(0.1 -0.1)">
       <defs>
        <path id="DejaVuSans-36" d="M 2113 2584 
Q 1688 2584 1439 2293 
Q 1191 2003 1191 1497 
Q 1191 994 1439 701 
Q 1688 409 2113 409 
Q 2538 409 2786 701 
Q 3034 994 3034 1497 
Q 3034 2003 2786 2293 
Q 2538 2584 2113 2584 
z
M 3366 4563 
L 3366 3988 
Q 3128 4100 2886 4159 
Q 2644 4219 2406 4219 
Q 1781 4219 1451 3797 
Q 1122 3375 1075 2522 
Q 1259 2794 1537 2939 
Q 1816 3084 2150 3084 
Q 2853 3084 3261 2657 
Q 3669 2231 3669 1497 
Q 3669 778 3244 343 
Q 2819 -91 2113 -91 
Q 1303 -91 875 529 
Q 447 1150 447 2328 
Q 447 3434 972 4092 
Q 1497 4750 2381 4750 
Q 2619 4750 2861 4703 
Q 3103 4656 3366 4563 
z
" transform="scale(0.015625)"/>
       </defs>
       <use xlink:href="#DejaVuSans-36"/>
       <use xlink:href="#DejaVuSans-30" x="63.623047"/>
       <use xlink:href="#DejaVuSans-30" x="127.246094"/>
      </g>
     </g>
    </g>
    <g id="xtick_13">
     <g id="line2d_17">
      <g>
       <use xlink:href="#m090027707c" x="418.237831" y="188.12" style="stroke: #000000; stroke-width: 0.8"/>
      </g>
     </g>
     <g id="text_9">
      <!-- 800 -->
      <g transform="translate(408.694081 202.718438) scale(0.1 -0.1)">
       <defs>
        <path id="DejaVuSans-38" d="M 2034 2216 
Q 1584 2216 1326 1975 
Q 1069 1734 1069 1313 
Q 1069 891 1326 650 
Q 1584 409 2034 409 
Q 2484 409 2743 651 
Q 3003 894 3003 1313 
Q 3003 1734 2745 1975 
Q 2488 2216 2034 2216 
z
M 1403 2484 
Q 997 2584 770 2862 
Q 544 3141 544 3541 
Q 544 4100 942 4425 
Q 1341 4750 2034 4750 
Q 2731 4750 3128 4425 
Q 3525 4100 3525 3541 
Q 3525 3141 3298 2862 
Q 3072 2584 2669 2484 
Q 3125 2378 3379 2068 
Q 3634 1759 3634 1313 
Q 3634 634 3220 271 
Q 2806 -91 2034 -91 
Q 1263 -91 848 271 
Q 434 634 434 1313 
Q 434 1759 690 2068 
Q 947 2378 1403 2484 
z
M 1172 3481 
Q 1172 3119 1398 2916 
Q 1625 2713 2034 2713 
Q 2441 2713 2670 2916 
Q 2900 3119 2900 3481 
Q 2900 3844 2670 4047 
Q 2441 4250 2034 4250 
Q 1625 4250 1398 4047 
Q 1172 3844 1172 3481 
z
" transform="scale(0.015625)"/>
       </defs>
       <use xlink:href="#DejaVuSans-38"/>
       <use xlink:href="#DejaVuSans-30" x="63.623047"/>
       <use xlink:href="#DejaVuSans-30" x="127.246094"/>
      </g>
     </g>
    </g>
    <g id="xtick_14">
     <g id="line2d_18">
      <g>
       <use xlink:href="#m090027707c" x="505.228538" y="188.12" style="stroke: #000000; stroke-width: 0.8"/>
      </g>
     </g>
     <g id="text_10">
      <!-- 1000 -->
      <g transform="translate(492.503538 202.718438) scale(0.1 -0.1)">
       <use xlink:href="#DejaVuSans-31"/>
       <use xlink:href="#DejaVuSans-30" x="63.623047"/>
       <use xlink:href="#DejaVuSans-30" x="127.246094"/>
       <use xlink:href="#DejaVuSans-30" x="190.869141"/>
      </g>
     </g>
    </g>
    <g id="xtick_15">
     <g id="line2d_19">
      <g>
       <use xlink:href="#m090027707c" x="592.219246" y="188.12" style="stroke: #000000; stroke-width: 0.8"/>
      </g>
     </g>
     <g id="text_11">
      <!-- 1200 -->
      <g transform="translate(579.494246 202.718438) scale(0.1 -0.1)">
       <use xlink:href="#DejaVuSans-31"/>
       <use xlink:href="#DejaVuSans-32" x="63.623047"/>
       <use xlink:href="#DejaVuSans-30" x="127.246094"/>
       <use xlink:href="#DejaVuSans-30" x="190.869141"/>
      </g>
     </g>
    </g>
    <g id="xtick_16">
     <g id="line2d_20">
      <g>
       <use xlink:href="#m090027707c" x="679.209954" y="188.12" style="stroke: #000000; stroke-width: 0.8"/>
      </g>
     </g>
     <g id="text_12">
      <!-- 1400 -->
      <g transform="translate(666.484954 202.718438) scale(0.1 -0.1)">
       <use xlink:href="#DejaVuSans-31"/>
       <use xlink:href="#DejaVuSans-34" x="63.623047"/>
       <use xlink:href="#DejaVuSans-30" x="127.246094"/>
       <use xlink:href="#DejaVuSans-30" x="190.869141"/>
      </g>
     </g>
    </g>
   </g>
   <g id="matplotlib.axis_4">
    <g id="ytick_4">
     <g id="line2d_21">
      <g>
       <use xlink:href="#me9dbfaae9f" x="39.85" y="162.663424" style="stroke: #000000; stroke-width: 0.8"/>
      </g>
     </g>
     <g id="text_13">
      <!-- 0.00 -->
      <g transform="translate(10.584375 166.462643) scale(0.1 -0.1)">
       <defs>
        <path id="DejaVuSans-2e" d="M 684 794 
L 1344 794 
L 1344 0 
L 684 0 
L 684 794 
z
" transform="scale(0.015625)"/>
       </defs>
       <use xlink:href="#DejaVuSans-30"/>
       <use xlink:href="#DejaVuSans-2e" x="63.623047"/>
       <use xlink:href="#DejaVuSans-30" x="95.410156"/>
       <use xlink:href="#DejaVuSans-30" x="159.033203"/>
      </g>
     </g>
    </g>
    <g id="ytick_5">
     <g id="line2d_22">
      <g>
       <use xlink:href="#me9dbfaae9f" x="39.85" y="133.857478" style="stroke: #000000; stroke-width: 0.8"/>
      </g>
     </g>
     <g id="text_14">
      <!-- 0.05 -->
      <g transform="translate(10.584375 137.656696) scale(0.1 -0.1)">
       <defs>
        <path id="DejaVuSans-35" d="M 691 4666 
L 3169 4666 
L 3169 4134 
L 1269 4134 
L 1269 2991 
Q 1406 3038 1543 3061 
Q 1681 3084 1819 3084 
Q 2600 3084 3056 2656 
Q 3513 2228 3513 1497 
Q 3513 744 3044 326 
Q 2575 -91 1722 -91 
Q 1428 -91 1123 -41 
Q 819 9 494 109 
L 494 744 
Q 775 591 1075 516 
Q 1375 441 1709 441 
Q 2250 441 2565 725 
Q 2881 1009 2881 1497 
Q 2881 1984 2565 2268 
Q 2250 2553 1709 2553 
Q 1456 2553 1204 2497 
Q 953 2441 691 2322 
L 691 4666 
z
" transform="scale(0.015625)"/>
       </defs>
       <use xlink:href="#DejaVuSans-30"/>
       <use xlink:href="#DejaVuSans-2e" x="63.623047"/>
       <use xlink:href="#DejaVuSans-30" x="95.410156"/>
       <use xlink:href="#DejaVuSans-35" x="159.033203"/>
      </g>
     </g>
    </g>
   </g>
   <g id="line2d_23">
    <path d="M 70.275 179.439345 
L 70.709954 180.360546 
L 71.144907 179.89673 
L 72.014814 181.182701 
L 72.449768 181.509607 
L 73.319675 182.902095 
L 73.754628 183.102107 
L 75.494442 182.807262 
L 76.799303 182.878818 
L 77.234257 183.052199 
L 77.66921 183.575177 
L 78.539117 183.917442 
L 78.974071 183.756858 
L 79.409024 183.871811 
L 79.843978 184.220158 
L 80.278931 184.224613 
L 80.713885 184.428643 
L 81.148838 184.389316 
L 81.583792 184.623709 
L 82.453699 184.609573 
L 83.75856 185.145909 
L 84.193513 185.040599 
L 85.06342 185.05577 
L 85.498374 184.837928 
L 87.673142 184.448006 
L 91.587723 183.252051 
L 92.45763 183.251091 
L 93.327538 182.981275 
L 93.762491 183.029947 
L 96.372212 182.54873 
L 97.242119 182.04397 
L 105.071283 180.722892 
L 106.376144 180.670278 
L 109.855772 180.839002 
L 112.465493 180.869654 
L 114.205307 180.806569 
L 115.075214 180.720526 
L 118.119889 180.176789 
L 122.469425 179.714268 
L 123.774285 179.617485 
L 124.644192 179.515782 
L 128.123821 179.296621 
L 130.733542 179.573651 
L 131.603449 179.806274 
L 133.778217 180.318798 
L 135.083077 180.338104 
L 135.952984 180.12353 
L 136.822891 180.147743 
L 138.127752 179.951153 
L 139.867566 179.925844 
L 141.172427 180.292078 
L 142.477287 180.298897 
L 146.826823 179.862029 
L 147.261776 179.892274 
L 148.131683 179.783209 
L 148.566637 179.796071 
L 149.436544 179.551954 
L 150.306451 179.303583 
L 154.221033 178.407573 
L 155.09094 178.30978 
L 156.395801 178.223393 
L 157.700661 178.1571 
L 159.875429 178.245592 
L 160.310382 178.302464 
L 161.180289 178.213 
L 162.050197 178.253108 
L 162.920104 178.202342 
L 167.269639 177.389712 
L 169.87936 177.252191 
L 171.184221 177.07182 
L 173.358989 176.796701 
L 175.098803 176.553417 
L 177.708524 176.558815 
L 178.578431 176.686729 
L 180.318245 177.150608 
L 181.623106 177.477375 
L 182.058059 177.507543 
L 182.493013 177.662825 
L 187.277502 177.938686 
L 189.017316 178.32937 
L 190.322177 178.486133 
L 190.75713 178.455443 
L 191.627037 178.679889 
L 192.061991 178.62538 
L 192.931898 178.756851 
L 194.236758 178.996168 
L 196.84648 179.509074 
L 197.716387 179.492991 
L 198.586294 179.491789 
L 199.456201 179.392828 
L 201.630969 179.423274 
L 203.805736 179.16224 
L 205.54555 179.343464 
L 207.285365 179.625376 
L 208.590225 179.938795 
L 211.6349 180.111576 
L 215.114528 179.529093 
L 216.419389 179.689544 
L 218.159203 179.440215 
L 219.02911 179.316391 
L 220.768924 179.047597 
L 225.11846 178.530834 
L 229.033041 178.884088 
L 230.337902 179.159332 
L 231.207809 179.204504 
L 232.51267 179.163698 
L 238.167066 178.986686 
L 238.602019 179.032271 
L 240.341833 178.707347 
L 247.30109 178.477702 
L 249.040904 178.118764 
L 249.910811 177.928736 
L 250.780718 177.824998 
L 252.085579 177.570167 
L 255.565207 177.70856 
L 257.305021 178.211052 
L 258.609882 178.220747 
L 259.914743 177.957328 
L 260.349696 178.027022 
L 262.959417 177.80081 
L 263.394371 177.83282 
L 264.264278 177.711024 
L 266.004092 177.709121 
L 270.353628 177.60625 
L 272.093442 177.486994 
L 275.57307 177.653184 
L 276.877931 177.886823 
L 277.747838 178.193015 
L 281.227466 178.887047 
L 282.532327 178.888956 
L 285.577001 179.042398 
L 286.011955 179.022944 
L 286.881862 179.152454 
L 289.491583 179.50058 
L 290.36149 179.625192 
L 295.580933 180.095709 
L 301.235329 179.273832 
L 303.84505 179.69605 
L 304.714957 179.828085 
L 305.584864 179.89826 
L 308.194585 180.179556 
L 309.499446 180.187472 
L 310.804307 180.033269 
L 312.979074 179.842617 
L 314.283935 179.790044 
L 315.588796 179.678451 
L 316.458703 179.569048 
L 318.198517 179.499233 
L 322.548052 179.184476 
L 326.462634 179.714616 
L 327.332541 179.910512 
L 329.507309 180.14598 
L 330.377216 180.073293 
L 332.986937 179.82295 
L 333.856844 179.743309 
L 337.336472 179.83297 
L 338.20638 179.681189 
L 339.51124 179.704922 
L 345.165636 179.414585 
L 348.645264 178.709825 
L 349.515172 178.572588 
L 350.820032 178.391042 
L 352.9948 178.438472 
L 355.169568 178.63784 
L 356.909382 178.486201 
L 357.779289 178.540516 
L 359.084149 178.502249 
L 360.823964 178.151006 
L 363.868638 177.938978 
L 368.653127 177.433947 
L 371.697802 177.448326 
L 372.567709 177.652212 
L 373.87257 177.984634 
L 374.742477 178.211683 
L 377.352198 178.757353 
L 378.222105 178.818446 
L 383.441548 178.713268 
L 386.486222 179.091702 
L 387.356129 179.006718 
L 391.270711 179.433524 
L 392.140618 179.441301 
L 394.75034 179.298342 
L 396.0552 179.035362 
L 399.534828 178.728728 
L 401.709596 178.95678 
L 402.579503 178.994441 
L 403.44941 179.192069 
L 407.363992 179.336185 
L 409.103806 179.066803 
L 409.973713 179.010978 
L 411.278574 179.045563 
L 412.148481 179.043375 
L 413.018388 178.988716 
L 414.758202 178.665588 
L 415.628109 178.579492 
L 417.367924 178.15112 
L 419.107738 177.811449 
L 419.542691 177.879561 
L 419.977645 177.834215 
L 420.847552 178.024368 
L 421.717459 178.150754 
L 426.501948 179.166427 
L 427.371855 179.026659 
L 428.241762 178.805583 
L 430.851483 178.37077 
L 433.026251 177.461046 
L 433.896158 176.939942 
L 434.766065 176.416532 
L 436.505879 175.234653 
L 437.375786 174.737569 
L 439.550554 172.6722 
L 441.725322 169.914257 
L 446.074857 163.387786 
L 454.338974 152.549475 
L 456.078788 150.239323 
L 468.257487 134.60149 
L 470.867209 131.257899 
L 471.737116 130.511508 
L 472.607023 129.576503 
L 474.346837 128.277757 
L 475.651698 127.668542 
L 476.521605 127.14912 
L 477.826465 126.665848 
L 480.87114 125.664091 
L 481.741047 125.913842 
L 482.176001 125.877699 
L 482.610954 126.052919 
L 485.220675 128.20611 
L 486.525536 129.819022 
L 489.135257 133.274153 
L 491.310025 135.762251 
L 494.789653 139.929089 
L 500.009096 146.512815 
L 502.183863 149.312651 
L 503.488724 150.922669 
L 504.793585 152.535629 
L 506.533399 154.195997 
L 508.273213 156.190875 
L 510.447981 158.650815 
L 512.622748 161.533703 
L 513.492655 162.654079 
L 516.53733 166.321944 
L 523.93154 174.888461 
L 524.801447 175.593773 
L 527.846122 177.241447 
L 530.455843 177.692943 
L 531.325751 177.726585 
L 536.110239 177.613779 
L 536.980147 177.718566 
L 538.719961 177.662284 
L 540.024821 177.357215 
L 540.459775 177.382893 
L 541.764635 177.094161 
L 542.634543 176.88112 
L 544.80931 176.447308 
L 547.419031 176.327544 
L 552.20352 176.512071 
L 553.073427 176.497013 
L 553.943335 176.489053 
L 556.553056 176.097348 
L 557.422963 176.088155 
L 558.29287 175.814656 
L 560.902591 176.001849 
L 561.772498 175.859837 
L 565.68708 175.457927 
L 566.991941 175.484997 
L 567.861848 175.658468 
L 569.166708 175.883149 
L 570.036615 176.07292 
L 571.77643 176.498063 
L 573.516244 176.783921 
L 574.386151 176.898249 
L 575.691011 176.863301 
L 580.040547 177.38322 
L 581.345407 177.337517 
L 581.780361 177.444279 
L 582.650268 177.495417 
L 587.869711 178.130183 
L 588.739618 178.07926 
L 590.479432 177.960403 
L 591.784292 177.964535 
L 593.089153 177.820505 
L 597.873642 177.94238 
L 599.178503 178.053258 
L 602.223177 178.203947 
L 603.093084 177.97722 
L 604.397945 177.761019 
L 606.137759 177.799149 
L 610.052341 177.861325 
L 610.922248 177.768199 
L 612.227109 177.881638 
L 614.401876 177.822775 
L 617.011598 178.191874 
L 619.621319 178.946251 
L 621.796086 179.251357 
L 623.535901 179.122701 
L 624.840761 179.133718 
L 625.710668 179.114279 
L 627.015529 179.245712 
L 629.190297 179.255819 
L 632.234971 179.401274 
L 633.104878 179.571964 
L 635.7146 179.631276 
L 636.584507 179.790117 
L 639.629182 179.870316 
L 640.499089 179.867051 
L 641.368996 179.99481 
L 643.10881 179.994057 
L 645.283578 180.100613 
L 646.153485 180.317738 
L 647.893299 180.543666 
L 650.068066 180.679755 
L 650.937974 180.654503 
L 652.677788 180.490081 
L 654.417602 180.393988 
L 657.027323 179.781529 
L 657.462277 179.832942 
L 658.332184 179.52485 
L 660.506951 178.609596 
L 661.376858 177.946594 
L 664.856487 176.251438 
L 665.29144 176.235363 
L 665.726394 176.338184 
L 666.161347 176.239436 
L 666.596301 176.428387 
L 667.466208 176.325889 
L 667.901162 176.538795 
L 668.771069 176.709098 
L 669.206022 177.109812 
L 669.640976 177.139319 
L 670.075929 177.337099 
L 670.510883 177.142413 
L 671.38079 177.156993 
L 673.990511 176.323517 
L 674.860418 177.135152 
L 675.295372 177.074243 
L 675.730325 177.307213 
L 676.165279 176.658725 
L 676.600232 176.572606 
L 677.035186 176.229767 
L 677.470139 175.400289 
L 677.905093 175.54929 
L 678.340046 173.232992 
L 678.775 166.741944 
L 678.775 166.741944 
" clip-path="url(#p252a5b40d0)" style="fill: none; stroke: #ff0000; stroke-width: 1.5; stroke-linecap: square"/>
   </g>
   <g id="patch_8">
    <path d="M 39.85 188.12 
L 39.85 122.69 
" style="fill: none; stroke: #000000; stroke-width: 0.8; stroke-linejoin: miter; stroke-linecap: square"/>
   </g>
   <g id="patch_9">
    <path d="M 709.2 188.12 
L 709.2 122.69 
" style="fill: none; stroke: #000000; stroke-width: 0.8; stroke-linejoin: miter; stroke-linecap: square"/>
   </g>
   <g id="patch_10">
    <path d="M 39.85 188.12 
L 709.2 188.12 
" style="fill: none; stroke: #000000; stroke-width: 0.8; stroke-linejoin: miter; stroke-linecap: square"/>
   </g>
   <g id="patch_11">
    <path d="M 39.85 122.69 
L 709.2 122.69 
" style="fill: none; stroke: #000000; stroke-width: 0.8; stroke-linejoin: miter; stroke-linecap: square"/>
   </g>
   <g id="text_15">
    <!-- The anomaly scores of an IForest with sliding window of size 16 -->
    <g transform="translate(183.725937 116.69) scale(0.12 -0.12)">
     <defs>
      <path id="DejaVuSans-6f" d="M 1959 3097 
Q 1497 3097 1228 2736 
Q 959 2375 959 1747 
Q 959 1119 1226 758 
Q 1494 397 1959 397 
Q 2419 397 2687 759 
Q 2956 1122 2956 1747 
Q 2956 2369 2687 2733 
Q 2419 3097 1959 3097 
z
M 1959 3584 
Q 2709 3584 3137 3096 
Q 3566 2609 3566 1747 
Q 3566 888 3137 398 
Q 2709 -91 1959 -91 
Q 1206 -91 779 398 
Q 353 888 353 1747 
Q 353 2609 779 3096 
Q 1206 3584 1959 3584 
z
" transform="scale(0.015625)"/>
      <path id="DejaVuSans-6d" d="M 3328 2828 
Q 3544 3216 3844 3400 
Q 4144 3584 4550 3584 
Q 5097 3584 5394 3201 
Q 5691 2819 5691 2113 
L 5691 0 
L 5113 0 
L 5113 2094 
Q 5113 2597 4934 2840 
Q 4756 3084 4391 3084 
Q 3944 3084 3684 2787 
Q 3425 2491 3425 1978 
L 3425 0 
L 2847 0 
L 2847 2094 
Q 2847 2600 2669 2842 
Q 2491 3084 2119 3084 
Q 1678 3084 1418 2786 
Q 1159 2488 1159 1978 
L 1159 0 
L 581 0 
L 581 3500 
L 1159 3500 
L 1159 2956 
Q 1356 3278 1631 3431 
Q 1906 3584 2284 3584 
Q 2666 3584 2933 3390 
Q 3200 3197 3328 2828 
z
" transform="scale(0.015625)"/>
      <path id="DejaVuSans-6c" d="M 603 4863 
L 1178 4863 
L 1178 0 
L 603 0 
L 603 4863 
z
" transform="scale(0.015625)"/>
      <path id="DejaVuSans-79" d="M 2059 -325 
Q 1816 -950 1584 -1140 
Q 1353 -1331 966 -1331 
L 506 -1331 
L 506 -850 
L 844 -850 
Q 1081 -850 1212 -737 
Q 1344 -625 1503 -206 
L 1606 56 
L 191 3500 
L 800 3500 
L 1894 763 
L 2988 3500 
L 3597 3500 
L 2059 -325 
z
" transform="scale(0.015625)"/>
      <path id="DejaVuSans-73" d="M 2834 3397 
L 2834 2853 
Q 2591 2978 2328 3040 
Q 2066 3103 1784 3103 
Q 1356 3103 1142 2972 
Q 928 2841 928 2578 
Q 928 2378 1081 2264 
Q 1234 2150 1697 2047 
L 1894 2003 
Q 2506 1872 2764 1633 
Q 3022 1394 3022 966 
Q 3022 478 2636 193 
Q 2250 -91 1575 -91 
Q 1294 -91 989 -36 
Q 684 19 347 128 
L 347 722 
Q 666 556 975 473 
Q 1284 391 1588 391 
Q 1994 391 2212 530 
Q 2431 669 2431 922 
Q 2431 1156 2273 1281 
Q 2116 1406 1581 1522 
L 1381 1569 
Q 847 1681 609 1914 
Q 372 2147 372 2553 
Q 372 3047 722 3315 
Q 1072 3584 1716 3584 
Q 2034 3584 2315 3537 
Q 2597 3491 2834 3397 
z
" transform="scale(0.015625)"/>
      <path id="DejaVuSans-63" d="M 3122 3366 
L 3122 2828 
Q 2878 2963 2633 3030 
Q 2388 3097 2138 3097 
Q 1578 3097 1268 2742 
Q 959 2388 959 1747 
Q 959 1106 1268 751 
Q 1578 397 2138 397 
Q 2388 397 2633 464 
Q 2878 531 3122 666 
L 3122 134 
Q 2881 22 2623 -34 
Q 2366 -91 2075 -91 
Q 1284 -91 818 406 
Q 353 903 353 1747 
Q 353 2603 823 3093 
Q 1294 3584 2113 3584 
Q 2378 3584 2631 3529 
Q 2884 3475 3122 3366 
z
" transform="scale(0.015625)"/>
      <path id="DejaVuSans-66" d="M 2375 4863 
L 2375 4384 
L 1825 4384 
Q 1516 4384 1395 4259 
Q 1275 4134 1275 3809 
L 1275 3500 
L 2222 3500 
L 2222 3053 
L 1275 3053 
L 1275 0 
L 697 0 
L 697 3053 
L 147 3053 
L 147 3500 
L 697 3500 
L 697 3744 
Q 697 4328 969 4595 
Q 1241 4863 1831 4863 
L 2375 4863 
z
" transform="scale(0.015625)"/>
      <path id="DejaVuSans-49" d="M 628 4666 
L 1259 4666 
L 1259 0 
L 628 0 
L 628 4666 
z
" transform="scale(0.015625)"/>
      <path id="DejaVuSans-46" d="M 628 4666 
L 3309 4666 
L 3309 4134 
L 1259 4134 
L 1259 2759 
L 3109 2759 
L 3109 2228 
L 1259 2228 
L 1259 0 
L 628 0 
L 628 4666 
z
" transform="scale(0.015625)"/>
      <path id="DejaVuSans-77" d="M 269 3500 
L 844 3500 
L 1563 769 
L 2278 3500 
L 2956 3500 
L 3675 769 
L 4391 3500 
L 4966 3500 
L 4050 0 
L 3372 0 
L 2619 2869 
L 1863 0 
L 1184 0 
L 269 3500 
z
" transform="scale(0.015625)"/>
      <path id="DejaVuSans-69" d="M 603 3500 
L 1178 3500 
L 1178 0 
L 603 0 
L 603 3500 
z
M 603 4863 
L 1178 4863 
L 1178 4134 
L 603 4134 
L 603 4863 
z
" transform="scale(0.015625)"/>
      <path id="DejaVuSans-67" d="M 2906 1791 
Q 2906 2416 2648 2759 
Q 2391 3103 1925 3103 
Q 1463 3103 1205 2759 
Q 947 2416 947 1791 
Q 947 1169 1205 825 
Q 1463 481 1925 481 
Q 2391 481 2648 825 
Q 2906 1169 2906 1791 
z
M 3481 434 
Q 3481 -459 3084 -895 
Q 2688 -1331 1869 -1331 
Q 1566 -1331 1297 -1286 
Q 1028 -1241 775 -1147 
L 775 -588 
Q 1028 -725 1275 -790 
Q 1522 -856 1778 -856 
Q 2344 -856 2625 -561 
Q 2906 -266 2906 331 
L 2906 616 
Q 2728 306 2450 153 
Q 2172 0 1784 0 
Q 1141 0 747 490 
Q 353 981 353 1791 
Q 353 2603 747 3093 
Q 1141 3584 1784 3584 
Q 2172 3584 2450 3431 
Q 2728 3278 2906 2969 
L 2906 3500 
L 3481 3500 
L 3481 434 
z
" transform="scale(0.015625)"/>
      <path id="DejaVuSans-7a" d="M 353 3500 
L 3084 3500 
L 3084 2975 
L 922 459 
L 3084 459 
L 3084 0 
L 275 0 
L 275 525 
L 2438 3041 
L 353 3041 
L 353 3500 
z
" transform="scale(0.015625)"/>
     </defs>
     <use xlink:href="#DejaVuSans-54"/>
     <use xlink:href="#DejaVuSans-68" x="61.083984"/>
     <use xlink:href="#DejaVuSans-65" x="124.462891"/>
     <use xlink:href="#DejaVuSans-20" x="185.986328"/>
     <use xlink:href="#DejaVuSans-61" x="217.773438"/>
     <use xlink:href="#DejaVuSans-6e" x="279.052734"/>
     <use xlink:href="#DejaVuSans-6f" x="342.431641"/>
     <use xlink:href="#DejaVuSans-6d" x="403.613281"/>
     <use xlink:href="#DejaVuSans-61" x="501.025391"/>
     <use xlink:href="#DejaVuSans-6c" x="562.304688"/>
     <use xlink:href="#DejaVuSans-79" x="590.087891"/>
     <use xlink:href="#DejaVuSans-20" x="649.267578"/>
     <use xlink:href="#DejaVuSans-73" x="681.054688"/>
     <use xlink:href="#DejaVuSans-63" x="733.154297"/>
     <use xlink:href="#DejaVuSans-6f" x="788.134766"/>
     <use xlink:href="#DejaVuSans-72" x="849.316406"/>
     <use xlink:href="#DejaVuSans-65" x="888.179688"/>
     <use xlink:href="#DejaVuSans-73" x="949.703125"/>
     <use xlink:href="#DejaVuSans-20" x="1001.802734"/>
     <use xlink:href="#DejaVuSans-6f" x="1033.589844"/>
     <use xlink:href="#DejaVuSans-66" x="1094.771484"/>
     <use xlink:href="#DejaVuSans-20" x="1129.976562"/>
     <use xlink:href="#DejaVuSans-61" x="1161.763672"/>
     <use xlink:href="#DejaVuSans-6e" x="1223.042969"/>
     <use xlink:href="#DejaVuSans-20" x="1286.421875"/>
     <use xlink:href="#DejaVuSans-49" x="1318.208984"/>
     <use xlink:href="#DejaVuSans-46" x="1347.701172"/>
     <use xlink:href="#DejaVuSans-6f" x="1401.595703"/>
     <use xlink:href="#DejaVuSans-72" x="1462.777344"/>
     <use xlink:href="#DejaVuSans-65" x="1501.640625"/>
     <use xlink:href="#DejaVuSans-73" x="1563.164062"/>
     <use xlink:href="#DejaVuSans-74" x="1615.263672"/>
     <use xlink:href="#DejaVuSans-20" x="1654.472656"/>
     <use xlink:href="#DejaVuSans-77" x="1686.259766"/>
     <use xlink:href="#DejaVuSans-69" x="1768.046875"/>
     <use xlink:href="#DejaVuSans-74" x="1795.830078"/>
     <use xlink:href="#DejaVuSans-68" x="1835.039062"/>
     <use xlink:href="#DejaVuSans-20" x="1898.417969"/>
     <use xlink:href="#DejaVuSans-73" x="1930.205078"/>
     <use xlink:href="#DejaVuSans-6c" x="1982.304688"/>
     <use xlink:href="#DejaVuSans-69" x="2010.087891"/>
     <use xlink:href="#DejaVuSans-64" x="2037.871094"/>
     <use xlink:href="#DejaVuSans-69" x="2101.347656"/>
     <use xlink:href="#DejaVuSans-6e" x="2129.130859"/>
     <use xlink:href="#DejaVuSans-67" x="2192.509766"/>
     <use xlink:href="#DejaVuSans-20" x="2255.986328"/>
     <use xlink:href="#DejaVuSans-77" x="2287.773438"/>
     <use xlink:href="#DejaVuSans-69" x="2369.560547"/>
     <use xlink:href="#DejaVuSans-6e" x="2397.34375"/>
     <use xlink:href="#DejaVuSans-64" x="2460.722656"/>
     <use xlink:href="#DejaVuSans-6f" x="2524.199219"/>
     <use xlink:href="#DejaVuSans-77" x="2585.380859"/>
     <use xlink:href="#DejaVuSans-20" x="2667.167969"/>
     <use xlink:href="#DejaVuSans-6f" x="2698.955078"/>
     <use xlink:href="#DejaVuSans-66" x="2760.136719"/>
     <use xlink:href="#DejaVuSans-20" x="2795.341797"/>
     <use xlink:href="#DejaVuSans-73" x="2827.128906"/>
     <use xlink:href="#DejaVuSans-69" x="2879.228516"/>
     <use xlink:href="#DejaVuSans-7a" x="2907.011719"/>
     <use xlink:href="#DejaVuSans-65" x="2959.501953"/>
     <use xlink:href="#DejaVuSans-20" x="3021.025391"/>
     <use xlink:href="#DejaVuSans-31" x="3052.8125"/>
     <use xlink:href="#DejaVuSans-36" x="3116.435547"/>
    </g>
   </g>
  </g>
 </g>
 <defs>
  <clipPath id="p6fcfb65cf4">
   <rect x="39.85" y="26.88" width="669.35" height="65.43"/>
  </clipPath>
  <clipPath id="p252a5b40d0">
   <rect x="39.85" y="122.69" width="669.35" height="65.43"/>
  </clipPath>
 </defs>
</svg>
